<svg width="172" height="320" viewBox="0 0 172 320" fill="none" xmlns="http://www.w3.org/2000/svg">
<rect width="172" height="320" fill="#1E1E1E"/>
<!-- Bottom part of the egg shell -->
<path d="M56 150C56 169.333 66 180 86 180C106 180 116 169.333 116 150H56Z" fill="#E0E0E0"/>
<path d="M86 180C96 180 103.333 174.667 108 164C103.333 174.667 96 180 86 180Z" fill="#BDBDBD"/>
<!-- ChoomiPet Body -->
<path d="M86 110C70 110 60 120 60 140C60 155 70 165 86 165C102 165 112 155 112 140C112 120 102 110 86 110Z" fill="#C9E6FF"/>
<!-- Eyes -->
<circle cx="78" cy="135" r="5" fill="#2F2F2F"/>
<circle cx="94" cy="135" r="5" fill="#2F2F2F"/>
<circle cx="79" cy="134" r="2" fill="white"/>
<circle cx="95" cy="134" r="2" fill="white"/>
<!-- Antenna -->
<path d="M86 110C86 100 80 95 80 95" stroke="#A0C4FF" stroke-width="3" stroke-linecap="round"/>
<circle cx="79" cy="94" r="4" fill="#A0C4FF"/>
<!-- Logo -->
<text x="86" y="220" font-family="Arial, sans-serif" font-size="20" fill="#FFFFFF" text-anchor="middle">Choomi</text>
</svg>